<svg width="20" height="20" viewBox="0 0 20 20" fill="none" xmlns="http://www.w3.org/2000/svg">
<g clip-path="url(#clip0_2384_1654)">
<path d="M16.7831 15.98C16.5265 16.2776 16.3056 16.5597 16.0582 16.8162C14.7106 18.2158 13.0801 19.0749 11.151 19.3433C9.33326 19.5962 7.55662 19.4328 5.88862 18.6376C3.10133 17.3092 1.40686 15.0944 0.789688 12.0816C0.39072 10.1351 0.497537 8.19598 1.26717 6.34996C2.52707 3.32803 4.7821 1.4464 7.99393 0.777196C9.96046 0.367272 11.916 0.495088 13.7694 1.30398C16.7338 2.59674 18.5342 4.86913 19.2244 8.02161C19.3832 8.74833 19.4343 9.48692 19.4334 10.231C19.4316 12.8092 19.4334 15.3884 19.4334 17.9666C19.4334 18.5445 19.1577 18.9754 18.6647 19.1744C18.1361 19.3872 17.5034 19.2721 17.1291 18.8942C16.8881 18.6504 16.7849 18.3509 16.784 18.0131C16.784 17.4106 16.784 16.808 16.784 16.2055C16.784 16.1425 16.784 16.0786 16.784 15.9809L16.7831 15.98ZM16.8744 10.042C16.836 9.62752 16.815 9.21029 16.7548 8.79854C16.5147 7.14242 15.7715 5.74558 14.5226 4.63175C13.0253 3.29608 11.2505 2.78755 9.27756 2.99754C6.75685 3.26595 4.95465 4.60528 3.82896 6.8457C3.14789 8.20055 3.00546 9.65947 3.22092 11.1476C3.51947 13.2064 4.5283 14.8378 6.27024 15.9882C7.668 16.9112 9.22279 17.1915 10.8707 17.0144C12.5624 16.8318 13.9812 16.1041 15.1041 14.8278C16.3047 13.4629 16.8388 11.846 16.8753 10.0411L16.8744 10.042Z" fill="white"/>
<path d="M6.34165 9.79716C6.44755 9.94323 6.54615 10.0957 6.66119 10.2336C6.92869 10.5549 7.26284 10.7877 7.65359 10.9365C8.16485 11.131 8.68433 11.1529 9.21111 11.0114C9.49779 10.9338 9.76255 10.8069 10.0008 10.6307C10.0456 10.5978 10.0684 10.6152 10.1031 10.6389C10.44 10.8635 10.8097 11.0005 11.2123 11.0434C11.7702 11.1027 12.2915 10.9904 12.7726 10.7019C13.1433 10.4791 13.4336 10.176 13.6491 9.80081C13.6573 9.78711 13.6655 9.77342 13.6828 9.74512C13.6883 9.80172 13.6929 9.84372 13.6965 9.88572C13.7568 10.6298 13.7221 11.3666 13.4701 12.0768C13.0702 13.2062 12.3289 14.037 11.2215 14.4971C10.1296 14.9509 9.07417 14.8057 8.0982 14.1538C7.19893 13.5531 6.6201 12.7187 6.37817 11.6587C6.28687 11.2606 6.25857 10.8562 6.28048 10.449C6.29144 10.2436 6.31609 10.0382 6.33526 9.83368C6.33617 9.81907 6.34074 9.80446 6.34165 9.79898V9.79716Z" fill="white"/>
<path d="M12.1762 7.91281C12.1762 8.25517 12.178 8.59845 12.1762 8.94081C12.1735 9.28135 11.8923 9.55524 11.5508 9.55433C11.2121 9.55341 10.9318 9.27952 10.93 8.94081C10.9254 8.30904 10.9236 7.67635 10.9181 7.04457C10.9181 7.00714 10.9053 6.96515 10.8853 6.93319C10.7812 6.76247 10.6214 6.6593 10.4406 6.58626C10.0234 6.41645 9.64088 6.47671 9.29578 6.76703C9.27295 6.7862 9.25287 6.80903 9.23187 6.83003C9.12505 6.93502 9.07849 7.05462 9.08032 7.21165C9.08853 7.78408 9.08305 8.35651 9.08214 8.92803C9.08214 9.25396 8.84477 9.51507 8.51884 9.5525C8.21299 9.58719 7.92176 9.3763 7.85146 9.0668C7.8405 9.01841 7.83594 8.9682 7.83594 8.9189C7.83594 8.24878 7.83685 7.57775 7.83777 6.90763C7.83777 6.79716 7.86333 6.69399 7.9108 6.59448C8.23308 5.91432 8.76169 5.48522 9.49115 5.30445C10.363 5.08808 11.2678 5.47244 11.7371 5.99375C11.9343 6.21195 12.0767 6.46119 12.1497 6.74695C12.1634 6.79899 12.1671 6.85559 12.168 6.90945C12.1698 7.2436 12.168 7.57775 12.168 7.91281C12.1716 7.91281 12.1744 7.91281 12.178 7.91281H12.1762Z" fill="white"/>
</g>
<defs>
<clipPath id="clip0_2384_1654">
<rect width="20" height="20" fill="white"/>
</clipPath>
</defs>
</svg>
