<svg width="120" height="80" viewBox="0 0 120 80" fill="none" xmlns="http://www.w3.org/2000/svg">
    <rect y="27" width="26.2501" height="26.3904" rx="1.82487" fill="#004685"/>
    <path d="M18.139 44.689C17.9476 44.9111 17.7827 45.1216 17.5981 45.313C16.5926 46.3573 15.376 46.9983 13.9366 47.1986C12.5804 47.3873 11.2547 47.2653 10.0102 46.672C7.93045 45.6809 6.66614 44.0283 6.20565 41.7803C5.90796 40.328 5.98766 38.8811 6.56192 37.5037C7.50198 35.2489 9.18455 33.845 11.581 33.3456C13.0483 33.0398 14.5075 33.1351 15.8903 33.7387C18.1022 34.7033 19.4455 36.3988 19.9605 38.751C20.079 39.2932 20.1172 39.8443 20.1165 40.3995C20.1152 42.3232 20.1165 44.2476 20.1165 46.1713C20.1165 46.6025 19.9108 46.9241 19.5429 47.0726C19.1485 47.2313 18.6764 47.1455 18.3972 46.8634C18.2173 46.6816 18.1403 46.4581 18.1397 46.2061C18.1397 45.7565 18.1397 45.3069 18.1397 44.8573C18.1397 44.8103 18.1397 44.7626 18.1397 44.6897L18.139 44.689ZM18.2071 40.2585C18.1785 39.9492 18.1628 39.6379 18.1179 39.3307C17.9387 38.095 17.3842 37.0527 16.4523 36.2217C15.3351 35.2251 14.0109 34.8456 12.5388 35.0023C10.658 35.2026 9.3133 36.2019 8.47337 37.8736C7.9652 38.8845 7.85893 39.9731 8.01969 41.0834C8.24245 42.6195 8.99518 43.8369 10.2949 44.6952C11.3378 45.3839 12.4979 45.593 13.7275 45.4608C14.9898 45.3246 16.0484 44.7817 16.8862 43.8294C17.782 42.811 18.1805 41.6045 18.2078 40.2578L18.2071 40.2585Z" fill="white"/>
    <path d="M10.3478 40.0764C10.4268 40.1854 10.5004 40.2992 10.5862 40.402C10.7858 40.6418 11.0351 40.8155 11.3267 40.9266C11.7081 41.0717 12.0957 41.088 12.4888 40.9824C12.7027 40.9245 12.9002 40.8298 13.078 40.6984C13.1114 40.6738 13.1284 40.6868 13.1543 40.7045C13.4057 40.8721 13.6816 40.9743 13.982 41.0063C14.3982 41.0505 14.7872 40.9668 15.1462 40.7515C15.4227 40.5853 15.6394 40.3591 15.8001 40.0792C15.8063 40.0689 15.8124 40.0587 15.8253 40.0376C15.8294 40.0798 15.8328 40.1112 15.8356 40.1425C15.8805 40.6977 15.8546 41.2474 15.6666 41.7774C15.3682 42.62 14.8151 43.2399 13.9888 43.5833C13.1741 43.9218 12.3866 43.8135 11.6584 43.3271C10.9874 42.8789 10.5555 42.2563 10.375 41.4654C10.3069 41.1684 10.2858 40.8666 10.3021 40.5628C10.3103 40.4095 10.3287 40.2563 10.343 40.1037C10.3437 40.0928 10.3471 40.0819 10.3478 40.0778V40.0764Z" fill="white"/>
    <path d="M14.7004 38.6703C14.7004 38.9258 14.7017 39.1819 14.7004 39.4373C14.6983 39.6914 14.4885 39.8958 14.2337 39.8951C13.981 39.8944 13.7719 39.6901 13.7705 39.4373C13.7671 38.9659 13.7657 38.4939 13.7617 38.0225C13.7617 37.9945 13.7521 37.9632 13.7371 37.9394C13.6595 37.812 13.5403 37.735 13.4054 37.6805C13.0941 37.5538 12.8087 37.5988 12.5512 37.8154C12.5341 37.8297 12.5191 37.8467 12.5035 37.8624C12.4238 37.9407 12.389 38.03 12.3904 38.1471C12.3965 38.5743 12.3924 39.0014 12.3918 39.4278C12.3918 39.671 12.2146 39.8658 11.9715 39.8937C11.7433 39.9196 11.5259 39.7623 11.4735 39.5313C11.4653 39.4952 11.4619 39.4578 11.4619 39.421C11.4619 38.921 11.4626 38.4203 11.4633 37.9203C11.4633 37.8379 11.4824 37.7609 11.5178 37.6866C11.7582 37.1791 12.1527 36.859 12.6969 36.7241C13.3475 36.5627 14.0226 36.8494 14.3727 37.2384C14.5198 37.4012 14.6261 37.5872 14.6806 37.8004C14.6908 37.8392 14.6935 37.8815 14.6942 37.9217C14.6956 38.171 14.6942 38.4203 14.6942 38.6703C14.697 38.6703 14.699 38.6703 14.7017 38.6703H14.7004Z" fill="white"/>
    <path d="M33.1899 45.6289L36.5752 34.8915H39.2074L42.5927 45.6289H40.7434L37.6713 35.995H38.074L35.0392 45.6289H33.1899ZM35.0764 43.3025V41.6247H40.7136V43.3025H35.0764ZM47.4379 45.8526C46.6077 45.8526 45.8994 45.6687 45.3128 45.3008C44.7262 44.928 44.2763 44.4209 43.9631 43.7797C43.6549 43.1384 43.4984 42.4126 43.4934 41.6024C43.4984 40.7772 43.6599 40.0464 43.9781 39.4101C44.3012 38.7689 44.7585 38.2668 45.3501 37.9039C45.9416 37.5361 46.645 37.3521 47.4603 37.3521C48.3749 37.3521 49.1479 37.5833 49.7793 38.0456C50.4156 38.5029 50.8306 39.1293 51.0245 39.9246L49.2349 40.4093C49.0957 39.9768 48.8646 39.6413 48.5415 39.4027C48.2184 39.1591 47.8505 39.0373 47.4379 39.0373C46.9706 39.0373 46.5854 39.1492 46.2821 39.3728C45.9789 39.5916 45.7552 39.8948 45.611 40.2826C45.4669 40.6703 45.3948 41.1102 45.3948 41.6024C45.3948 42.3679 45.5663 42.9868 45.9093 43.459C46.2523 43.9313 46.7618 44.1674 47.4379 44.1674C47.9151 44.1674 48.2904 44.0581 48.5638 43.8393C48.8422 43.6206 49.051 43.3049 49.1902 42.8923L51.0245 43.3025C50.776 44.1227 50.341 44.754 49.7196 45.1964C49.0982 45.6339 48.3377 45.8526 47.4379 45.8526ZM55.7974 45.8526C54.9672 45.8526 54.2589 45.6687 53.6723 45.3008C53.0857 44.928 52.6358 44.4209 52.3226 43.7797C52.0144 43.1384 51.8579 42.4126 51.8529 41.6024C51.8579 40.7772 52.0194 40.0464 52.3376 39.4101C52.6607 38.7689 53.118 38.2668 53.7096 37.9039C54.3011 37.5361 55.0045 37.3521 55.8198 37.3521C56.7344 37.3521 57.5074 37.5833 58.1388 38.0456C58.7751 38.5029 59.1901 39.1293 59.384 39.9246L57.5944 40.4093C57.4553 39.9768 57.2241 39.6413 56.901 39.4027C56.5779 39.1591 56.21 39.0373 55.7974 39.0373C55.3301 39.0373 54.9449 39.1492 54.6416 39.3728C54.3384 39.5916 54.1147 39.8948 53.9705 40.2826C53.8264 40.6703 53.7543 41.1102 53.7543 41.6024C53.7543 42.3679 53.9258 42.9868 54.2688 43.459C54.6118 43.9313 55.1213 44.1674 55.7974 44.1674C56.2746 44.1674 56.6499 44.0581 56.9233 43.8393C57.2017 43.6206 57.4105 43.3049 57.5497 42.8923L59.384 43.3025C59.1355 44.1227 58.7005 44.754 58.0791 45.1964C57.4577 45.6339 56.6972 45.8526 55.7974 45.8526ZM64.321 45.8526C63.5057 45.8526 62.7899 45.6761 62.1735 45.3232C61.5571 44.9702 61.0749 44.4806 60.7269 43.8542C60.3839 43.2279 60.2124 42.5071 60.2124 41.6918C60.2124 40.812 60.3814 40.0489 60.7194 39.4027C61.0575 38.7515 61.5272 38.2469 62.1287 37.889C62.7302 37.5311 63.4262 37.3521 64.2166 37.3521C65.0517 37.3521 65.7601 37.5485 66.3417 37.9412C66.9283 38.3289 67.3632 38.8782 67.6466 39.5891C67.9299 40.2999 68.0368 41.1376 67.9672 42.102H66.1851V41.4458C66.1801 40.5709 66.026 39.9321 65.7228 39.5294C65.4196 39.1268 64.9423 38.9255 64.2911 38.9255C63.5554 38.9255 63.0086 39.1541 62.6507 39.6115C62.2928 40.0638 62.1138 40.7275 62.1138 41.6024C62.1138 42.4176 62.2928 43.0489 62.6507 43.4963C63.0086 43.9437 63.5306 44.1674 64.2166 44.1674C64.659 44.1674 65.0393 44.0705 65.3574 43.8766C65.6805 43.6778 65.9291 43.3919 66.1031 43.0191L67.8777 43.556C67.5695 44.2818 67.0923 44.846 66.4461 45.2486C65.8048 45.6513 65.0964 45.8526 64.321 45.8526ZM61.5471 42.102V40.7449H67.0873V42.102H61.5471ZM72.7403 45.8526C71.7461 45.8526 70.9383 45.6289 70.317 45.1815C69.6956 44.7341 69.3178 44.1053 69.1836 43.295L71.0179 43.0117C71.1123 43.4093 71.3211 43.7225 71.6442 43.9512C71.9674 44.1798 72.375 44.2942 72.8671 44.2942C73.2996 44.2942 73.6327 44.2097 73.8663 44.0407C74.1049 43.8667 74.2242 43.6305 74.2242 43.3323C74.2242 43.1484 74.1795 43.0017 74.09 42.8923C74.0055 42.778 73.8166 42.6687 73.5233 42.5643C73.23 42.4599 72.7801 42.3281 72.1737 42.1691C71.4976 41.9901 70.9607 41.7987 70.563 41.5949C70.1653 41.3861 69.8795 41.1401 69.7055 40.8567C69.5315 40.5734 69.4445 40.2304 69.4445 39.8277C69.4445 39.3256 69.5763 38.8882 69.8397 38.5153C70.1032 38.1425 70.4711 37.8567 70.9433 37.6578C71.4156 37.454 71.9723 37.3521 72.6136 37.3521C73.2399 37.3521 73.7942 37.4491 74.2764 37.6429C74.7636 37.8368 75.1563 38.1127 75.4545 38.4706C75.7528 38.8285 75.9367 39.2486 76.0063 39.7308L74.172 40.0589C74.1273 39.7159 73.9707 39.4449 73.7022 39.2461C73.4388 39.0472 73.0858 38.9354 72.6434 38.9105C72.2209 38.8857 71.8804 38.9503 71.6219 39.1044C71.3634 39.2535 71.2341 39.4648 71.2341 39.7382C71.2341 39.8923 71.2863 40.0241 71.3907 40.1334C71.4951 40.2428 71.7039 40.3521 72.0171 40.4615C72.3352 40.5709 72.8075 40.7051 73.4338 40.8642C74.0751 41.0282 74.5871 41.2171 74.9699 41.4309C75.3576 41.6396 75.636 41.8907 75.805 42.184C75.979 42.4773 76.066 42.8327 76.066 43.2503C76.066 44.0605 75.7702 44.6968 75.1786 45.1591C74.5921 45.6214 73.7793 45.8526 72.7403 45.8526ZM80.8086 45.8526C79.8144 45.8526 79.0066 45.6289 78.3852 45.1815C77.7638 44.7341 77.386 44.1053 77.2518 43.295L79.0861 43.0117C79.1806 43.4093 79.3894 43.7225 79.7125 43.9512C80.0356 44.1798 80.4432 44.2942 80.9353 44.2942C81.3678 44.2942 81.7009 44.2097 81.9345 44.0407C82.1731 43.8667 82.2924 43.6305 82.2924 43.3323C82.2924 43.1484 82.2477 43.0017 82.1582 42.8923C82.0737 42.778 81.8848 42.6687 81.5915 42.5643C81.2982 42.4599 80.8484 42.3281 80.2419 42.1691C79.5658 41.9901 79.0289 41.7987 78.6313 41.5949C78.2336 41.3861 77.9477 41.1401 77.7738 40.8567C77.5998 40.5734 77.5128 40.2304 77.5128 39.8277C77.5128 39.3256 77.6445 38.8882 77.908 38.5153C78.1714 38.1425 78.5393 37.8567 79.0116 37.6578C79.4838 37.454 80.0406 37.3521 80.6818 37.3521C81.3082 37.3521 81.8624 37.4491 82.3446 37.6429C82.8318 37.8368 83.2245 38.1127 83.5228 38.4706C83.821 38.8285 84.005 39.2486 84.0746 39.7308L82.2402 40.0589C82.1955 39.7159 82.0389 39.4449 81.7705 39.2461C81.507 39.0472 81.1541 38.9354 80.7116 38.9105C80.2891 38.8857 79.9486 38.9503 79.6901 39.1044C79.4316 39.2535 79.3024 39.4648 79.3024 39.7382C79.3024 39.8923 79.3546 40.0241 79.4589 40.1334C79.5633 40.2428 79.7721 40.3521 80.0853 40.4615C80.4034 40.5709 80.8757 40.7051 81.502 40.8642C82.1433 41.0282 82.6553 41.2171 83.0381 41.4309C83.4258 41.6396 83.7042 41.8907 83.8732 42.184C84.0472 42.4773 84.1342 42.8327 84.1342 43.2503C84.1342 44.0605 83.8384 44.6968 83.2469 45.1591C82.6603 45.6214 81.8475 45.8526 80.8086 45.8526ZM87.5828 45.6289L84.4435 34.8915H86.3301L88.4701 42.6463L90.6027 34.9064L92.4892 34.8915L94.6292 42.6463L96.7618 34.8915H98.6483L95.5165 45.6289H93.7419L91.5422 37.9934L89.3574 45.6289H87.5828ZM99.7229 36.3529V34.705H101.52V36.3529H99.7229ZM99.7229 45.6289V37.5758H101.52V45.6289H99.7229ZM106.863 45.8526C105.869 45.8526 105.061 45.6289 104.439 45.1815C103.818 44.7341 103.44 44.1053 103.306 43.295L105.14 43.0117C105.235 43.4093 105.444 43.7225 105.767 43.9512C106.09 44.1798 106.497 44.2942 106.99 44.2942C107.422 44.2942 107.755 44.2097 107.989 44.0407C108.227 43.8667 108.347 43.6305 108.347 43.3323C108.347 43.1484 108.302 43.0017 108.212 42.8923C108.128 42.778 107.939 42.6687 107.646 42.5643C107.353 42.4599 106.903 42.3281 106.296 42.1691C105.62 41.9901 105.083 41.7987 104.686 41.5949C104.288 41.3861 104.002 41.1401 103.828 40.8567C103.654 40.5734 103.567 40.2304 103.567 39.8277C103.567 39.3256 103.699 38.8882 103.962 38.5153C104.226 38.1425 104.594 37.8567 105.066 37.6578C105.538 37.454 106.095 37.3521 106.736 37.3521C107.362 37.3521 107.917 37.4491 108.399 37.6429C108.886 37.8368 109.279 38.1127 109.577 38.4706C109.875 38.8285 110.059 39.2486 110.129 39.7308L108.295 40.0589C108.25 39.7159 108.093 39.4449 107.825 39.2461C107.561 39.0472 107.208 38.9354 106.766 38.9105C106.343 38.8857 106.003 38.9503 105.744 39.1044C105.486 39.2535 105.357 39.4648 105.357 39.7382C105.357 39.8923 105.409 40.0241 105.513 40.1334C105.618 40.2428 105.826 40.3521 106.14 40.4615C106.458 40.5709 106.93 40.7051 107.556 40.8642C108.198 41.0282 108.71 41.2171 109.092 41.4309C109.48 41.6396 109.758 41.8907 109.928 42.184C110.101 42.4773 110.188 42.8327 110.188 43.2503C110.188 44.0605 109.893 44.6968 109.301 45.1591C108.715 45.6214 107.902 45.8526 106.863 45.8526ZM115.483 45.8526C114.668 45.8526 113.952 45.6761 113.335 45.3232C112.719 44.9702 112.237 44.4806 111.889 43.8542C111.546 43.2279 111.374 42.5071 111.374 41.6918C111.374 40.812 111.543 40.0489 111.881 39.4027C112.219 38.7515 112.689 38.2469 113.291 37.889C113.892 37.5311 114.588 37.3521 115.378 37.3521C116.214 37.3521 116.922 37.5485 117.504 37.9412C118.09 38.3289 118.525 38.8782 118.809 39.5891C119.092 40.2999 119.199 41.1376 119.129 42.102H117.347V41.4458C117.342 40.5709 117.188 39.9321 116.885 39.5294C116.581 39.1268 116.104 38.9255 115.453 38.9255C114.717 38.9255 114.171 39.1541 113.813 39.6115C113.455 40.0638 113.276 40.7275 113.276 41.6024C113.276 42.4176 113.455 43.0489 113.813 43.4963C114.171 43.9437 114.692 44.1674 115.378 44.1674C115.821 44.1674 116.201 44.0705 116.519 43.8766C116.842 43.6778 117.091 43.3919 117.265 43.0191L119.04 43.556C118.731 44.2818 118.254 44.846 117.608 45.2486C116.967 45.6513 116.258 45.8526 115.483 45.8526ZM112.709 42.102V40.7449H118.249V42.102H112.709Z" fill="#004685"/>
    </svg>
    